<svg width="20" height="20" viewBox="0 0 20 20" fill="none" xmlns="http://www.w3.org/2000/svg">
  <path d="M17.5 4.375H2.5C2.15625 4.375 1.875 4.65625 1.875 5V15C1.875 15.3438 2.15625 15.625 2.5 15.625H17.5C17.8438 15.625 18.125 15.3438 18.125 15V5C18.125 4.65625 17.8438 4.375 17.5 4.375ZM16.5625 6.1875L10.4375 10.1875C10.1719 10.375 9.82812 10.375 9.5625 10.1875L3.4375 6.1875C3.38281 6.15234 3.34375 6.09766 3.34375 6.03125C3.34375 5.88281 3.50391 5.78906 3.63281 5.875L10 10.0625L16.3672 5.875C16.4961 5.78906 16.6562 5.88281 16.6562 6.03125C16.6562 6.09766 16.6172 6.15234 16.5625 6.1875Z" fill="#9CA3AF"/>
</svg> 